<?xml version="1.0" encoding="UTF-8" standalone="no"?>
<!-- Created with Inkscape (http://www.inkscape.org/) -->

<svg
   xmlns:dc="http://purl.org/dc/elements/1.1/"
   xmlns:cc="http://creativecommons.org/ns#"
   xmlns:rdf="http://www.w3.org/1999/02/22-rdf-syntax-ns#"
   xmlns:svg="http://www.w3.org/2000/svg"
   xmlns="http://www.w3.org/2000/svg"
   xmlns:sodipodi="http://sodipodi.sourceforge.net/DTD/sodipodi-0.dtd"
   xmlns:inkscape="http://www.inkscape.org/namespaces/inkscape"
   width="500"
   height="200"
   viewBox="0 0 500.00001 200"
   id="svg2"
   version="1.1"
   inkscape:version="0.91 r13725"
   sodipodi:docname="eventbyte.svg"
   inkscape:export-filename="/home/mhaidarh/all/org/impactbyte/repo/apps/eventbyte/eventbyte-design/brand/eventbyte.png"
   inkscape:export-xdpi="90"
   inkscape:export-ydpi="90">
  <defs
     id="defs4" />
  <sodipodi:namedview
     id="base"
     pagecolor="#ffffff"
     bordercolor="#666666"
     borderopacity="1.0"
     inkscape:pageopacity="0.0"
     inkscape:pageshadow="2"
     inkscape:zoom="1.5049359"
     inkscape:cx="163.80542"
     inkscape:cy="36.059123"
     inkscape:document-units="px"
     inkscape:current-layer="g3703"
     showgrid="false"
     inkscape:window-width="1366"
     inkscape:window-height="744"
     inkscape:window-x="0"
     inkscape:window-y="24"
     inkscape:window-maximized="1"
     units="px"
     inkscape:showpageshadow="false" />
  <metadata
     id="metadata7">
    <rdf:RDF>
      <cc:Work
         rdf:about="">
        <dc:format>image/svg+xml</dc:format>
        <dc:type
           rdf:resource="http://purl.org/dc/dcmitype/StillImage" />
        <dc:title />
      </cc:Work>
    </rdf:RDF>
  </metadata>
  <g
     inkscape:label="Layer 1"
     inkscape:groupmode="layer"
     id="layer1"
     transform="translate(0,-852.36216)">
    <g
       id="g3703"
       transform="translate(7.2299044,0)">
      <path
         style="font-style:normal;font-variant:normal;font-weight:500;font-stretch:normal;font-size:medium;line-height:125%;font-family:ZAPPAT;-inkscape-font-specification:'ZAPPAT Medium';letter-spacing:0px;word-spacing:0px;fill:#384276;fill-opacity:1;stroke:none;stroke-width:1px;stroke-linecap:butt;stroke-linejoin:miter;stroke-opacity:1"
         d="M 227.23047 0 L 227.23047 18.521484 L 227.23047 92.478516 L 227.23047 110.99805 L 245.62305 110.99805 L 264.14453 110.99805 L 264.14453 92.478516 L 245.62305 92.478516 L 245.62305 73.068359 L 263.25781 73.068359 L 263.25781 55.435547 L 245.62305 55.435547 L 245.62305 18.521484 L 264.14453 18.521484 L 264.14453 0 L 245.62305 0 L 227.23047 0 z M 270.58789 0 L 288.98242 110.99805 L 307.50391 110.99805 L 326.02539 0 L 307.50391 0 L 298.24414 73.957031 L 288.98242 0 L 270.58789 0 z M 332.28125 0 L 332.28125 18.521484 L 332.28125 92.478516 L 332.28125 110.99805 L 350.67578 110.99805 L 369.19727 110.99805 L 369.19727 92.478516 L 350.67578 92.478516 L 350.67578 73.068359 L 368.30859 73.068359 L 368.30859 55.435547 L 350.67578 55.435547 L 350.67578 18.521484 L 369.19727 18.521484 L 369.19727 0 L 350.67578 0 L 332.28125 0 z M 375.64062 0 L 375.64062 110.99805 L 394.03516 110.99805 L 394.03516 55.435547 L 412.55664 110.99805 L 431.07617 110.99805 L 431.07617 0 L 412.55664 0 L 412.55664 55.435547 L 394.03516 0 L 375.64062 0 z M 437.33398 0 L 437.33398 18.521484 L 455.72852 18.521484 L 455.72852 110.99805 L 474.25 110.99805 L 474.25 18.521484 L 492.76953 18.521484 L 492.76953 0 L 474.25 0 L 455.72852 0 L 437.33398 0 z "
         transform="translate(-7.2299044,852.36216)"
         id="path3671" />
      <path
         style="font-style:normal;font-variant:normal;font-weight:normal;font-stretch:normal;font-size:medium;line-height:125%;font-family:'Fredoka One';-inkscape-font-specification:'Fredoka One';letter-spacing:0px;word-spacing:0px;fill:#384276;fill-opacity:1;stroke:none;stroke-width:1px;stroke-linecap:butt;stroke-linejoin:miter;stroke-opacity:1"
         d="M 299.80273 124.27539 C 298.11094 124.27539 295.97972 125.12071 293.4082 126.8125 C 290.02462 129.11334 288.33203 131.34819 288.33203 133.51367 C 288.33203 134.79943 289.11152 136.59174 290.66797 138.89258 L 312.59375 171.67969 L 312.59375 190.86523 C 312.59375 192.48937 312.62765 193.70558 312.69531 194.51758 C 312.83066 195.26198 313.16761 196.17697 313.70898 197.25977 C 314.25036 198.27483 315.16346 198.98463 316.44922 199.39062 C 317.73498 199.79669 319.46147 200 321.62695 200 C 323.79245 200 325.51893 199.79669 326.80469 199.39062 C 328.09045 198.98463 329.00355 198.27483 329.54492 197.25977 C 330.0863 196.2447 330.39131 195.36549 330.45898 194.62109 C 330.59432 193.80909 330.66211 192.62294 330.66211 191.06641 L 330.66211 171.67969 L 352.58594 138.89258 C 354.14238 136.59174 354.92188 134.79943 354.92188 133.51367 C 354.92188 131.34819 353.26318 129.11334 349.94727 126.8125 C 347.2404 125.12071 345.10918 124.27539 343.55273 124.27539 C 342.60533 124.27539 341.72612 124.54652 340.91406 125.08789 C 340.16968 125.62926 339.55964 126.16956 339.08594 126.71094 C 338.6799 127.2523 338.10571 128.09959 337.36133 129.25 L 321.62695 154.42383 L 305.89258 129.25 C 305.14819 128.09959 304.54011 127.2523 304.06641 126.71094 C 303.66037 126.16956 303.05033 125.62926 302.23828 125.08789 C 301.49389 124.54652 300.68246 124.27539 299.80273 124.27539 z M 236.26367 125.29102 C 234.09818 125.29102 232.37365 125.49436 231.08789 125.90039 C 229.80213 126.30642 228.88708 127.01618 228.3457 128.03125 C 227.80433 129.04632 227.46737 129.92554 227.33203 130.66992 C 227.26436 131.41431 227.23047 132.59853 227.23047 134.22266 L 227.23047 190.56055 L 227.23047 193.50391 C 227.29814 194.11297 227.46759 194.89056 227.73828 195.83789 C 228.07664 196.78536 228.54916 197.49697 229.1582 197.9707 C 229.76724 198.44437 230.64646 198.84917 231.79688 199.1875 C 232.94729 199.5259 234.40264 199.69531 236.16211 199.69531 L 262.85938 199.69531 C 269.28817 199.69531 274.80262 197.32691 279.4043 192.58984 C 283.80295 188.19118 286.06974 182.60893 286.20508 175.8418 C 286.20508 169.9544 284.20942 164.6413 280.2168 159.9043 C 282.78832 156.18236 284.07422 152.08939 284.07422 147.62305 C 284.07422 141.46493 281.87522 136.18576 277.47656 131.78711 C 273.28092 127.45614 268.06954 125.29102 261.84375 125.29102 L 236.26367 125.29102 z M 365.33008 125.29102 C 363.97664 125.29102 362.96188 125.35881 362.28516 125.49414 C 361.67612 125.56182 360.96636 125.79905 360.1543 126.20508 C 359.34224 126.6111 358.76609 127.35476 358.42773 128.4375 C 358.08938 129.45258 357.91992 130.84015 357.91992 132.59961 C 357.91992 134.35907 358.08938 135.78053 358.42773 136.86328 C 358.76609 137.94602 359.34224 138.68968 360.1543 139.0957 C 360.96636 139.50174 361.67612 139.77287 362.28516 139.9082 C 362.96188 139.97592 363.94276 140.00977 365.22852 140.00977 L 384.71875 140.00977 L 384.71875 190.9668 C 384.71875 192.5232 384.75265 193.70558 384.82031 194.51758 C 384.95566 195.26198 385.26067 196.14314 385.73438 197.1582 C 386.27575 198.10567 387.15496 198.7815 388.37305 199.1875 C 389.65881 199.59357 391.3514 199.79688 393.44922 199.79688 C 395.54704 199.79687 397.23768 199.59357 398.52344 199.1875 C 399.8092 198.7815 400.68841 198.10567 401.16211 197.1582 C 401.70349 196.14314 402.00851 195.26198 402.07617 194.51758 C 402.21151 193.77331 402.2793 192.62294 402.2793 191.06641 L 402.2793 140.00977 L 421.66797 140.00977 C 423.02141 140.00977 424.00229 139.97592 424.61133 139.9082 C 425.28804 139.77287 426.03169 139.50174 426.84375 139.0957 C 427.65582 138.68968 428.23197 137.97992 428.57031 136.96484 C 428.90867 135.8821 429.07812 134.46063 429.07812 132.70117 C 429.07813 130.94171 428.90867 129.52025 428.57031 128.4375 C 428.23197 127.35476 427.65582 126.6111 426.84375 126.20508 C 426.03169 125.79908 425.32193 125.56185 424.71289 125.49414 C 424.10384 125.35881 423.12296 125.29102 421.76953 125.29102 L 365.33008 125.29102 z M 443.84375 125.39258 C 440.25715 125.39258 437.82092 126.03455 436.53516 127.32031 C 435.2494 128.5384 434.60547 130.87297 434.60547 134.32422 L 434.60547 190.76367 L 434.60547 193.70703 C 434.67314 194.3161 434.8426 195.09362 435.11328 196.04102 C 435.45164 196.92075 435.92611 197.5986 436.53516 198.07227 C 437.14421 198.546 438.02341 198.95066 439.17383 199.28906 C 440.32424 199.6274 441.7796 199.79688 443.53906 199.79688 L 483.73633 199.79688 L 486.57812 199.79688 C 487.25484 199.72921 488.03238 199.55973 488.91211 199.28906 C 489.85952 198.95066 490.57123 198.47821 491.04492 197.86914 C 491.51863 197.26007 491.92337 196.37892 492.26172 195.22852 C 492.60008 194.07812 492.76953 192.6247 492.76953 190.86523 C 492.76953 188.69977 492.56618 186.97323 492.16016 185.6875 C 491.75412 184.40177 491.04437 183.48873 490.0293 182.94727 C 489.01422 182.4056 488.10112 182.10054 487.28906 182.0332 C 486.54468 181.89787 485.39434 181.83008 483.83789 181.83008 L 452.57227 181.83008 L 452.57227 171.57812 L 472.46875 171.57812 L 475.31055 171.57812 C 475.98726 171.51046 476.79869 171.34098 477.74609 171.07031 C 478.6935 170.73191 479.40521 170.2575 479.87891 169.64844 C 480.35261 169.03944 480.7593 168.16017 481.09766 167.00977 C 481.43601 165.85937 481.60352 164.404 481.60352 162.64453 C 481.60352 160.479 481.40212 158.75448 480.99609 157.46875 C 480.59006 156.18302 479.87835 155.26992 478.86328 154.72852 C 477.84821 154.18718 476.93511 153.88219 476.12305 153.81445 C 475.37867 153.67912 474.22833 153.61133 472.67188 153.61133 L 452.57227 153.61133 L 452.57227 143.35938 L 483.73633 143.35938 L 486.57812 143.35938 C 487.25484 143.29171 488.03238 143.12226 488.91211 142.85156 C 489.85952 142.51322 490.57123 142.03874 491.04492 141.42969 C 491.51863 140.82065 491.92337 139.94144 492.26172 138.79102 C 492.60008 137.6406 492.76953 136.18524 492.76953 134.42578 C 492.76953 132.26029 492.56618 130.53577 492.16016 129.25 C 491.75412 127.96425 491.04437 127.04919 490.0293 126.50781 C 489.01422 125.96649 488.10112 125.66342 487.28906 125.5957 C 486.54468 125.46036 485.39434 125.39258 483.83789 125.39258 L 443.84375 125.39258 z M 245.19727 143.25781 L 259.4082 143.25781 C 261.64136 143.25781 263.29811 143.59477 264.38086 144.27148 C 265.53128 144.9482 266.10742 146.36967 266.10742 148.53516 C 266.10742 149.75322 265.97186 150.73412 265.70117 151.47852 C 265.49815 152.15525 265.09146 152.66362 264.48242 153.00195 C 263.94105 153.27262 263.43464 153.44203 262.96094 153.50977 C 262.48724 153.57743 261.80942 153.61133 260.92969 153.61133 C 258.01981 153.61133 255.92248 154.0858 254.63672 155.0332 C 253.41863 155.9806 252.81055 157.8746 252.81055 160.7168 C 252.81055 163.76206 253.41863 165.75768 254.63672 166.70508 C 255.85481 167.65248 257.78268 168.12695 260.42188 168.12695 C 261.77531 168.12695 262.79204 168.19474 263.46875 168.33008 C 264.14547 168.39774 264.92301 168.63502 265.80273 169.04102 C 266.68247 169.37942 267.29055 170.02135 267.62891 170.96875 C 268.03493 171.91615 268.23828 173.16814 268.23828 174.72461 C 268.23828 176.34874 268.003 177.70249 267.5293 178.78516 C 267.0556 179.80036 266.37778 180.51002 265.49805 180.91602 C 264.68599 181.25428 264.04401 181.49162 263.57031 181.62695 C 263.09661 181.69515 262.52046 181.72852 261.84375 181.72852 L 245.19727 181.72852 L 245.19727 143.25781 z "
         transform="translate(-7.2299044,852.36216)"
         id="path3682" />
      <g
         transform="matrix(0.43478261,0,0,0.43478261,0,852.36216)"
         id="g3643">
        <g
           id="XMLID_1116_">
          <path
             inkscape:connector-curvature="0"
             id="XMLID_1117_"
             style="fill:#5e35b1"
             d="m 220,460 c 0,-13.061 -8.349,-24.167 -20,-28.286 l 0,28.286 20,0 z" />
          <path
             inkscape:connector-curvature="0"
             id="XMLID_1118_"
             style="fill:#5e35b1"
             d="m 160,379.434 0,48.066 40,2.5 0,-26.838 c 16.239,-5.74 30.876,-14.872 43.053,-26.552 l -67.846,-13.569 c -4.553,5.927 -9.646,11.415 -15.207,16.393 z" />
          <path
             inkscape:connector-curvature="0"
             id="XMLID_1119_"
             style="fill:#384276"
             d="m 120,425 0,6.714 c 11.651,4.119 20,15.225 20,28.286 l 60,0 0,-30 -80,-5 z" />
          <path
             inkscape:connector-curvature="0"
             id="XMLID_1120_"
             style="fill:#384276"
             d="m 40,420 0,-100 40,0 c 0,-56.392 28.293,-106.171 71.455,-135.93 0,-0.009 -125.471,86.498 -125.471,86.498 C 10.294,281.399 0,299.494 0,320 l 0,100 c 0,22.091 17.909,40 40,40 l 40,0 0,-37.5 -40,-2.5 z" />
          <path
             inkscape:connector-curvature="0"
             id="XMLID_1121_"
             style="fill:#384276"
             d="m 420,0 -40,10 0,30 80,0 C 460,17.909 442.092,0 420,0 Z" />
          <path
             inkscape:connector-curvature="0"
             id="XMLID_1122_"
             style="fill:#384276"
             d="m 420,240 -30.67,0 C 361.173,189.309 307.097,155 245,155 c -15.601,0 -30.695,2.167 -45,6.213 L 200,290 c 0,12.581 -1.94,24.707 -5.53,36.102 L 310,349.208 310,460 l 60,0 c 0,-13.061 -8.349,-24.167 -20,-28.286 l 0,-89.245 C 390.934,326.434 420,286.549 420,240 Z" />
          <path
             inkscape:connector-curvature="0"
             id="XMLID_1123_"
             style="fill:#b39ddb"
             d="m 420,40 0,200 c 0,46.549 -29.066,86.434 -70,102.469 l 0,42.129 C 413.422,367.091 460,308.989 460,240 l 0,-200 -40,0 z" />
          <path
             inkscape:connector-curvature="0"
             id="XMLID_1124_"
             style="fill:#b39ddb"
             d="m 194.47,326.102 c -4.254,13.5 -10.833,25.968 -19.263,36.94 L 310,390 310,349.208 194.47,326.102 Z" />
          <path
             inkscape:connector-curvature="0"
             id="XMLID_1125_"
             style="fill:#4b5e99"
             d="m 120,431.714 0,-28.552 c 14.905,-5.269 28.458,-13.396 40,-23.728 5.561,-4.978 10.654,-10.466 15.207,-16.393 8.43,-10.972 15.009,-23.439 19.263,-36.94 C 198.06,314.707 200,302.581 200,290 l 0,-128.787 c -17.546,4.963 -33.9,12.759 -48.545,22.857 C 108.293,213.829 80,263.608 80,320 l 0,140 60,0 c 0,-13.061 -8.349,-24.167 -20,-28.286 z" />
        </g>
        <g
           id="g3607" />
        <g
           id="g3609" />
        <g
           id="g3611" />
        <g
           id="g3613" />
        <g
           id="g3615" />
        <g
           id="g3617" />
        <g
           id="g3619" />
        <g
           id="g3621" />
        <g
           id="g3623" />
        <g
           id="g3625" />
        <g
           id="g3627" />
        <g
           id="g3629" />
        <g
           id="g3631" />
        <g
           id="g3633" />
        <g
           id="g3635" />
      </g>
    </g>
  </g>
</svg>
