<?xml version="1.0" encoding="UTF-8" standalone="no"?>
<!-- Created with Inkscape (http://www.inkscape.org/) -->

<svg
   xmlns:dc="http://purl.org/dc/elements/1.1/"
   xmlns:cc="http://creativecommons.org/ns#"
   xmlns:rdf="http://www.w3.org/1999/02/22-rdf-syntax-ns#"
   xmlns:svg="http://www.w3.org/2000/svg"
   xmlns="http://www.w3.org/2000/svg"
   xmlns:sodipodi="http://sodipodi.sourceforge.net/DTD/sodipodi-0.dtd"
   xmlns:inkscape="http://www.inkscape.org/namespaces/inkscape"
   width="500"
   height="500"
   viewBox="0 0 500.00001 500"
   id="svg2"
   version="1.1"
   inkscape:version="0.91 r13725"
   sodipodi:docname="eventbyte_square.svg"
   inkscape:export-filename="/home/mhaidarh/all/org/impactbyte/repo/apps/eventbyte/eventbyte-design/brand/eventbyte.png"
   inkscape:export-xdpi="90"
   inkscape:export-ydpi="90">
  <defs
     id="defs4" />
  <sodipodi:namedview
     id="base"
     pagecolor="#ffffff"
     bordercolor="#666666"
     borderopacity="1.0"
     inkscape:pageopacity="0.0"
     inkscape:pageshadow="2"
     inkscape:zoom="0.34999999"
     inkscape:cx="-93.476221"
     inkscape:cy="450.00002"
     inkscape:document-units="px"
     inkscape:current-layer="g3703"
     showgrid="false"
     inkscape:window-width="1366"
     inkscape:window-height="744"
     inkscape:window-x="0"
     inkscape:window-y="24"
     inkscape:window-maximized="1"
     units="px"
     inkscape:showpageshadow="false" />
  <metadata
     id="metadata7">
    <rdf:RDF>
      <cc:Work
         rdf:about="">
        <dc:format>image/svg+xml</dc:format>
        <dc:type
           rdf:resource="http://purl.org/dc/dcmitype/StillImage" />
        <dc:title />
      </cc:Work>
    </rdf:RDF>
  </metadata>
  <g
     inkscape:label="Layer 1"
     inkscape:groupmode="layer"
     id="layer1"
     transform="translate(0,-552.36216)">
    <g
       id="g3703"
       transform="translate(7.2299044,0)">
      <rect
         style="color:#000000;clip-rule:nonzero;display:inline;overflow:visible;visibility:visible;opacity:1;isolation:auto;mix-blend-mode:normal;color-interpolation:sRGB;color-interpolation-filters:linearRGB;solid-color:#000000;solid-opacity:1;fill:#384276;fill-opacity:1;fill-rule:nonzero;stroke:none;stroke-width:4;stroke-linecap:round;stroke-linejoin:round;stroke-miterlimit:4;stroke-dasharray:none;stroke-dashoffset:0;stroke-opacity:1;color-rendering:auto;image-rendering:auto;shape-rendering:auto;text-rendering:auto;enable-background:accumulate"
         id="rect3364"
         width="500"
         height="500"
         x="-7.2299042"
         y="552.36218" />
      <g
         id="g3420"
         transform="translate(-77.230749,80.318485)"
         style="fill:#ffffff">
        <path
           inkscape:connector-curvature="0"
           id="path3671"
           d="m 220.00085,751.72519 0,13.9501 0,55.70332 0,13.94863 13.85301,0 13.9501,0 0,-13.94863 -13.9501,0 0,-14.61944 13.28224,0 0,-13.28077 -13.28224,0 0,-27.80311 13.9501,0 0,-13.9501 -13.9501,0 -13.85301,0 z m 32.65615,0 13.85448,83.60205 13.95011,0 13.9501,-83.60205 -13.9501,0 -6.97432,55.70331 -6.97579,-55.70331 -13.85448,0 z m 46.46651,0 0,13.9501 0,55.70332 0,13.94863 13.85448,0 13.9501,0 0,-13.94863 -13.9501,0 0,-14.61944 13.28076,0 0,-13.28077 -13.28076,0 0,-27.80311 13.9501,0 0,-13.9501 -13.9501,0 -13.85448,0 z m 32.65762,0 0,83.60205 13.85449,0 0,-41.84884 13.9501,41.84884 13.94863,0 0,-83.60205 -13.94863,0 0,41.75321 -13.9501,-41.75321 -13.85449,0 z m 46.4665,0 0,13.9501 13.85449,0 0,69.65195 13.9501,0 0,-69.65195 13.94863,0 0,-13.9501 -13.94863,0 -13.9501,0 -13.85449,0 z"
           style="font-style:normal;font-variant:normal;font-weight:500;font-stretch:normal;font-size:medium;line-height:125%;font-family:ZAPPAT;-inkscape-font-specification:'ZAPPAT Medium';letter-spacing:0px;word-spacing:0px;fill:#ffffff;fill-opacity:1;stroke:none;stroke-width:1px;stroke-linecap:butt;stroke-linejoin:miter;stroke-opacity:1" />
        <path
           inkscape:connector-curvature="0"
           id="path3682"
           d="m 274.66118,845.32753 c -1.27423,0 -2.87944,0.63668 -4.81627,1.91091 -2.54846,1.73296 -3.82329,3.41622 -3.82329,5.04722 0,0.96842 0.5871,2.31836 1.75939,4.05132 l 16.51417,24.69475 0,14.45026 c 0,1.22328 0.0255,2.13931 0.0765,2.75089 0.10195,0.56068 0.35573,1.24983 0.76348,2.06538 0.40776,0.76453 1.0955,1.29914 2.06391,1.60492 0.96842,0.30585 2.26878,0.45898 3.89979,0.45898 1.63102,0 2.93138,-0.15313 3.8998,-0.45898 0.96841,-0.30578 1.65614,-0.84039 2.06389,-1.60492 0.40776,-0.76454 0.63749,-1.42674 0.68846,-1.98741 0.10194,-0.61159 0.153,-1.50498 0.153,-2.67733 l 0,-14.60179 16.51269,-24.69475 c 1.17229,-1.73296 1.7594,-3.0829 1.7594,-4.05132 0,-1.631 -1.24931,-3.31426 -3.7468,-5.04722 -2.03878,-1.27423 -3.64398,-1.91091 -4.81627,-1.91091 -0.71357,0 -1.37578,0.20421 -1.98741,0.61196 -0.56066,0.40775 -1.02013,0.8147 -1.37691,1.22246 -0.30583,0.40774 -0.7383,1.04591 -1.29895,1.91238 l -11.8509,18.96055 -11.85089,-18.96055 c -0.56066,-0.86647 -1.01866,-1.50464 -1.37544,-1.91238 -0.30583,-0.40776 -0.7653,-0.81471 -1.37692,-1.22246 -0.56067,-0.40775 -1.17182,-0.61196 -1.83442,-0.61196 z m -47.85666,0.76496 c -1.63101,0 -2.9299,0.15315 -3.89832,0.45897 -0.96841,0.30581 -1.65762,0.84039 -2.06538,1.60493 -0.40775,0.76453 -0.66154,1.42675 -0.76348,1.9874 -0.051,0.56067 -0.0765,1.4526 -0.0765,2.67587 l 0,42.43285 0,2.21689 c 0.051,0.45874 0.1786,1.04441 0.38247,1.75792 0.25485,0.71362 0.61075,1.2496 1.06947,1.6064 0.45872,0.35676 1.12093,0.66165 1.98741,0.91648 0.86647,0.25488 1.96262,0.38247 3.28783,0.38247 l 20.10798,0 c 4.84206,0 8.99546,-1.78384 12.46138,-5.35173 3.313,-3.313 5.02031,-7.51747 5.12224,-12.61437 0,-4.4343 -1.5031,-8.43605 -4.51028,-12.00388 1.93683,-2.80331 2.90535,-5.88608 2.90535,-9.25006 0,-4.6382 -1.65625,-8.61439 -4.96926,-11.92739 -3.16009,-3.26202 -7.08522,-4.89275 -11.77439,-4.89275 l -19.26653,0 z m 97.21087,0 c -1.01939,0 -1.7837,0.0511 -2.29339,0.15298 -0.45872,0.051 -0.9933,0.22966 -1.60493,0.53547 -0.61163,0.30581 -1.04558,0.86593 -1.30043,1.68143 -0.25484,0.76454 -0.38247,1.80964 -0.38247,3.13484 0,1.3252 0.12763,2.39582 0.38247,3.21133 0.25485,0.8155 0.6888,1.37562 1.30043,1.68142 0.61163,0.30583 1.14621,0.51004 1.60493,0.61197 0.50969,0.051 1.24848,0.0765 2.21689,0.0765 l 14.67975,0 0,38.38006 c 0,1.17226 0.0255,2.06281 0.0765,2.67439 0.10195,0.56068 0.33167,1.22435 0.68847,1.98888 0.40775,0.71362 1.06995,1.22264 1.9874,1.52844 0.96842,0.30584 2.24325,0.45897 3.8233,0.45897 1.58004,0 2.85341,-0.15313 3.82182,-0.45897 0.96842,-0.3058 1.63062,-0.81482 1.98741,-1.52844 0.40776,-0.76453 0.63749,-1.4282 0.68845,-1.98888 0.10194,-0.56057 0.153,-1.42701 0.153,-2.59936 l 0,-38.45509 14.60325,0 c 1.01939,0 1.75818,-0.0255 2.2169,-0.0765 0.50968,-0.10193 1.06979,-0.30614 1.68142,-0.61197 0.61164,-0.3058 1.04559,-0.84039 1.30042,-1.60493 0.25485,-0.8155 0.38247,-1.88613 0.38247,-3.21133 10e-6,-1.3252 -0.12762,-2.39582 -0.38247,-3.21133 -0.25483,-0.8155 -0.68878,-1.37562 -1.30042,-1.68143 -0.61163,-0.30579 -1.14621,-0.48447 -1.60493,-0.53547 -0.45873,-0.10192 -1.19751,-0.15298 -2.2169,-0.15298 l -42.50933,0 z m 59.1353,0.0765 c -2.70137,0 -4.5363,0.48352 -5.50472,1.45194 -0.96841,0.91744 -1.45341,2.67581 -1.45341,5.27524 l 0,42.50934 0,2.21689 c 0.051,0.45874 0.1786,1.04436 0.38248,1.75793 0.25484,0.6626 0.61221,1.17314 1.07093,1.5299 0.45873,0.35681 1.12093,0.66159 1.98741,0.91647 0.86647,0.25483 1.96263,0.38248 3.28783,0.38248 l 30.27597,0 2.14039,0 c 0.5097,-0.051 1.09533,-0.17861 1.75793,-0.38248 0.71357,-0.25488 1.24962,-0.61072 1.6064,-1.06946 0.35679,-0.45874 0.66164,-1.12241 0.91648,-1.98888 0.25484,-0.86646 0.38247,-1.96115 0.38247,-3.28636 0,-1.63099 -0.15316,-2.9314 -0.45897,-3.89979 -0.30582,-0.96839 -0.84039,-1.65608 -1.60493,-2.0639 -0.76454,-0.40798 -1.45228,-0.63774 -2.06391,-0.68846 -0.56065,-0.10193 -1.42707,-0.15299 -2.59937,-0.15299 l -23.54879,0 0,-7.72162 14.98573,0 2.1404,0 c 0.50969,-0.051 1.12085,-0.17861 1.83441,-0.38247 0.71358,-0.25488 1.24963,-0.6122 1.60641,-1.07094 0.35678,-0.45869 0.6631,-1.12094 0.91794,-1.9874 0.25484,-0.86647 0.38101,-1.96263 0.38101,-3.28783 0,-1.63105 -0.15169,-2.92993 -0.45751,-3.89832 -0.30581,-0.9684 -0.84186,-1.65613 -1.6064,-2.0639 -0.76453,-0.40773 -1.45227,-0.63745 -2.0639,-0.68847 -0.56065,-0.10193 -1.42707,-0.15298 -2.59937,-0.15298 l -15.13872,0 0,-7.72162 23.4723,0 2.14039,0 c 0.5097,-0.051 1.09533,-0.17859 1.75793,-0.38248 0.71357,-0.25483 1.24962,-0.6122 1.6064,-1.07093 0.35679,-0.45872 0.66164,-1.12093 0.91648,-1.98741 0.25484,-0.86648 0.38247,-1.96263 0.38247,-3.28783 0,-1.63101 -0.15316,-2.9299 -0.45897,-3.89832 -0.30582,-0.96841 -0.84039,-1.65762 -1.60493,-2.06537 -0.76454,-0.40772 -1.45228,-0.63599 -2.06391,-0.68699 -0.56065,-0.10194 -1.42707,-0.15299 -2.59937,-0.15299 l -30.12298,0 z m -149.61752,13.45582 10.70346,0 c 1.68198,0 2.92982,0.25379 3.74533,0.76348 0.86648,0.5097 1.30042,1.58033 1.30042,3.21134 0,0.91743 -0.1021,1.65623 -0.30598,2.2169 -0.15291,0.5097 -0.45923,0.8926 -0.91795,1.14742 -0.40775,0.20386 -0.78917,0.33146 -1.14595,0.38248 -0.35678,0.051 -0.86731,0.0765 -1.52991,0.0765 -2.19168,0 -3.77135,0.35736 -4.73977,1.07093 -0.91744,0.71356 -1.37544,2.1401 -1.37544,4.2808 0,2.29364 0.458,3.79671 1.37544,4.51028 0.91745,0.71357 2.36949,1.07093 4.3573,1.07093 1.01938,0 1.78517,0.0511 2.29485,0.153 0.5097,0.051 1.09533,0.22967 1.75792,0.53546 0.66261,0.25488 1.12061,0.73837 1.37545,1.45194 0.30581,0.71357 0.45897,1.65655 0.45897,2.82886 0,1.22327 -0.17721,2.24289 -0.53399,3.05834 -0.35678,0.76464 -0.86731,1.29914 -1.52991,1.60494 -0.61163,0.25477 -1.09516,0.43353 -1.45194,0.53546 -0.35679,0.0514 -0.79073,0.0765 -1.30042,0.0765 l -12.53788,0 0,-28.97556 z"
           style="font-style:normal;font-variant:normal;font-weight:normal;font-stretch:normal;font-size:medium;line-height:125%;font-family:'Fredoka One';-inkscape-font-specification:'Fredoka One';letter-spacing:0px;word-spacing:0px;fill:#ffffff;fill-opacity:1;stroke:none;stroke-width:1px;stroke-linecap:butt;stroke-linejoin:miter;stroke-opacity:1" />
      </g>
      <path
         style="fill:#ffffff"
         d="M 332.60938 69.681641 L 315.2168 74.029297 L 315.2168 87.072266 L 332.60938 87.072266 L 332.60938 174.0293 L 319.27344 174.0293 C 307.03127 151.98973 283.52018 137.07227 256.52148 137.07227 C 249.73844 137.07227 243.1766 138.01431 236.95703 139.77344 C 229.32834 141.93126 222.217 145.32245 215.84961 149.71289 C 215.84961 149.70889 161.29688 187.32031 161.29688 187.32031 C 154.47513 192.02944 150 199.89684 150 208.8125 L 150 252.29102 C 150 261.8958 157.78584 269.68164 167.39062 269.68164 L 184.7832 269.68164 L 210.86914 269.68164 L 236.95703 269.68164 L 245.65234 269.68164 C 245.65234 264.00294 242.02268 259.17368 236.95703 257.38281 L 236.95703 256.63867 L 236.95703 244.96875 C 244.01747 242.47309 250.38143 238.50404 255.67578 233.42578 L 284.7832 239.24609 L 284.7832 269.68164 L 310.86914 269.68164 C 310.86914 264.00294 307.23949 259.17368 302.17383 257.38281 L 302.17383 236.89844 C 329.74862 229.2867 350 204.02451 350 174.0293 L 350 87.072266 C 350 77.467486 342.21458 69.681641 332.60938 69.681641 z M 167.39062 208.8125 L 184.7832 208.8125 L 184.7832 253.37695 L 167.39062 252.29102 L 167.39062 208.8125 z M 219.56445 234.65234 L 219.56445 255.55078 L 202.17383 254.46484 L 202.17383 244.96875 C 208.65427 242.67788 214.54619 239.14452 219.56445 234.65234 z "
         transform="translate(-7.2299044,552.36216)"
         id="XMLID_1117_" />
    </g>
  </g>
</svg>
